<?xml version="1.0" encoding="UTF-8" standalone="no"?>
<!-- Created with Inkscape (http://www.inkscape.org/) -->
<!-- CC-BY-NC-ND, 2016 uberspace.de, https://creativecommons.org/licenses/by-nc-nd/4.0/ -->

<svg
   xmlns:dc="http://purl.org/dc/elements/1.1/"
   xmlns:cc="http://creativecommons.org/ns#"
   xmlns:rdf="http://www.w3.org/1999/02/22-rdf-syntax-ns#"
   xmlns:svg="http://www.w3.org/2000/svg"
   xmlns="http://www.w3.org/2000/svg"
   xmlns:sodipodi="http://sodipodi.sourceforge.net/DTD/sodipodi-0.dtd"
   xmlns:inkscape="http://www.inkscape.org/namespaces/inkscape"
   id="svg4190"
   version="1.1"
   inkscape:version="0.91 r13725"
   xml:space="preserve"
   width="1250"
   height="1250"
   viewBox="0 0 1250 1250"
   sodipodi:docname="logo.svg"
   inkscape:export-filename="/home/luto/Downloads/paternoster.png"
   inkscape:export-xdpi="350.25"
   inkscape:export-ydpi="350.25"><metadata
     id="metadata4196"><rdf:RDF><cc:Work
         rdf:about=""><dc:format>image/svg+xml</dc:format><dc:type
           rdf:resource="http://purl.org/dc/dcmitype/StillImage" /><dc:title></dc:title></cc:Work></rdf:RDF></metadata><defs
     id="defs4194"><clipPath
       clipPathUnits="userSpaceOnUse"
       id="clipPath4204"><path
         d="m 0,0 1000,0 0,1000 L 0,1000 0,0 Z"
         id="path4206"
         inkscape:connector-curvature="0" /></clipPath><clipPath
       clipPathUnits="userSpaceOnUse"
       id="clipPath4218"><path
         d="m 0,0 1000,0 0,1000 L 0,1000 0,0 Z"
         id="path4220"
         inkscape:connector-curvature="0" /></clipPath><clipPath
       clipPathUnits="userSpaceOnUse"
       id="clipPath4238"><path
         d="m 0,0 1000,0 0,1000 L 0,1000 0,0 Z"
         id="path4240"
         inkscape:connector-curvature="0" /></clipPath><clipPath
       clipPathUnits="userSpaceOnUse"
       id="clipPath4250"><path
         d="m 0,0 1000,0 0,1000 L 0,1000 0,0 Z"
         id="path4252"
         inkscape:connector-curvature="0" /></clipPath></defs><sodipodi:namedview
     pagecolor="#ffffff"
     bordercolor="#666666"
     borderopacity="1"
     objecttolerance="10"
     gridtolerance="10"
     guidetolerance="10"
     inkscape:pageopacity="0"
     inkscape:pageshadow="2"
     inkscape:window-width="1916"
     inkscape:window-height="1060"
     id="namedview4192"
     showgrid="false"
     inkscape:zoom="0.98768675"
     inkscape:cx="602.79748"
     inkscape:cy="196.82429"
     inkscape:window-x="2"
     inkscape:window-y="18"
     inkscape:window-maximized="0"
     inkscape:current-layer="g4198" /><g
     id="g4198"
     inkscape:groupmode="layer"
     inkscape:label="peternoster"
     transform="matrix(1.25,0,0,-1.25,0,1250)"><g
       id="g4200"
       inkscape:export-filename="/home/luto/Downloads/paternoster.png"
       inkscape:export-xdpi="350.25"
       inkscape:export-ydpi="350.25"><g
         id="g4202"
         clip-path="url(#clipPath4204)"><g
           id="g4208"
           transform="translate(125,1025.9851)"><path
             d="m 0,0 0.424,-510.439 c 0,0 -0.424,-16.579 -0.424,-24.973 C 0,-742.291 167.704,-910 374.577,-910 c 206.873,0 374.577,167.709 374.577,374.588 0,8.394 -0.424,24.973 -0.424,24.973 l 0.424,504.446"
             style="fill:none;stroke:#000000;stroke-width:36;stroke-linecap:butt;stroke-linejoin:miter;stroke-miterlimit:4;stroke-dasharray:none;stroke-opacity:1"
             id="path4210"
             inkscape:connector-curvature="0" /></g></g></g><path
       style="fill:#808080;fill-opacity:1;fill-rule:nonzero;stroke:none"
       d="M 500 0.001953125 L 500 542.07031 C 526.87213 501.64717 572.82146 475 625 475 C 677.1801 475 723.13016 501.64905 750.00195 542.07422 L 750.00195 0.001953125 L 500 0.001953125 z "
       transform="matrix(0.8,0,0,-0.8,0,1000)"
       id="path4212" /><g
       id="g4214"
       inkscape:export-filename="/home/luto/Downloads/paternoster.png"
       inkscape:export-xdpi="350.25"
       inkscape:export-ydpi="350.25"><g
         id="g4216"
         clip-path="url(#clipPath4218)"><g
           id="g4222"
           transform="translate(500,380)" /><g
           id="g4226"
           transform="translate(500,400)"><path
             d="M 0,0 C 55.228,0 100,44.772 100,100 100,155.228 55.228,200 0,200 -55.228,200 -100,155.228 -100,100 -100,44.772 -55.228,0 0,0"
             style="fill:#000000;fill-opacity:1;fill-rule:nonzero;stroke:none"
             id="path4228"
             inkscape:connector-curvature="0" /></g></g></g><path
       d="m 84.75,84.75 283.5,0 0,283.5 -283.5,0 0,-283.5 z"
       style="fill:#ffffff;fill-opacity:1;fill-rule:nonzero;stroke:#911d20;stroke-width:20;stroke-linecap:butt;stroke-linejoin:miter;stroke-miterlimit:4;stroke-dasharray:none;stroke-opacity:1"
       id="path4230"
       inkscape:connector-curvature="0"
       inkscape:export-filename="/home/luto/Downloads/paternoster.png"
       inkscape:export-xdpi="350.25"
       inkscape:export-ydpi="350.25" /><g
       id="g4256"
       transform="translate(125.4316,513.4315)"
       inkscape:export-filename="/home/luto/Downloads/paternoster.png"
       inkscape:export-xdpi="350.25"
       inkscape:export-ydpi="350.25"><path
         d="m 0,0 56.568,56.568 -113.136,0 L 0,0 Z"
         style="fill:#000000;fill-opacity:1;fill-rule:nonzero;stroke:none"
         id="path4258"
         inkscape:connector-curvature="0" /></g><g
       id="g4260"
       transform="translate(808.019,278.0579)"
       inkscape:export-filename="/home/luto/Downloads/paternoster.png"
       inkscape:export-xdpi="350.25"
       inkscape:export-ydpi="350.25"><path
         d="M 0,0 -79.792,-5.755 5.755,-79.793 0,0 Z"
         style="fill:#000000;fill-opacity:1;fill-rule:nonzero;stroke:none"
         id="path4262"
         inkscape:connector-curvature="0" /></g><g
       id="g4264"
       transform="translate(873.93729,974)"
       inkscape:export-filename="/home/luto/Downloads/paternoster.png"
       inkscape:export-xdpi="350.25"
       inkscape:export-ydpi="350.25"
       style="fill-opacity:1"><path
         d="M 0,0 -56.5,-56.5 56.068,-56.068 0,0 Z"
         style="fill-opacity:1;fill-rule:nonzero;stroke:none"
         id="path4266"
         inkscape:connector-curvature="0" /></g><path
       d="m 670.95,550.95 283.5,0 0,283.5 -283.5,0 0,-283.5 z"
       style="fill:#ffffff;fill-opacity:1;fill-rule:nonzero;stroke:#000000;stroke-width:20;stroke-linecap:butt;stroke-linejoin:miter;stroke-miterlimit:4;stroke-dasharray:none;stroke-opacity:1"
       id="path4230-6"
       inkscape:connector-curvature="0"
       inkscape:export-filename="/home/luto/Downloads/paternoster.png"
       inkscape:export-xdpi="350.25"
       inkscape:export-ydpi="350.25" /><path
       d="m 44.750002,671.75 283.500038,0 0,283.5 -283.500038,0 0,-283.5 z"
       style="fill:#ffffff;fill-opacity:1;fill-rule:nonzero;stroke:#000000;stroke-width:20;stroke-linecap:butt;stroke-linejoin:miter;stroke-miterlimit:4;stroke-dasharray:none;stroke-opacity:1"
       id="path4230-6-7"
       inkscape:connector-curvature="0"
       inkscape:export-filename="/home/luto/Downloads/paternoster.png"
       inkscape:export-xdpi="350.25"
       inkscape:export-ydpi="350.25" /></g></svg>
